<svg width="77" height="53" viewBox="0 0 77 53" fill="none" xmlns="http://www.w3.org/2000/svg">
<rect x="14.8652" y="2.41309" width="48.0817" height="47.9699" fill="#C7C0D0"/>
<path d="M60.5688 0H16.4097C12.7948 0 9.86426 2.9305 9.86426 6.54546V45.5C9.86426 49.115 12.7948 52.0455 16.4097 52.0455H60.5688C64.1838 52.0455 67.1143 49.115 67.1143 45.5V6.54545C67.1143 2.9305 64.1838 0 60.5688 0Z" fill="#322F37"/>
<path d="M32.3564 32.7655L32.3596 19.8867C32.3598 19.595 32.4375 19.3088 32.5846 19.0586C32.7316 18.8084 32.9425 18.6035 33.1947 18.4658C33.4469 18.3282 33.7311 18.2628 34.0168 18.2767C34.3026 18.2907 34.5793 18.3834 34.8175 18.545L44.298 24.986C44.5146 25.1333 44.6922 25.3328 44.815 25.5669C44.9379 25.8009 45.0022 26.0623 45.0022 26.3277C45.0022 26.5932 44.9379 26.8546 44.815 27.0886C44.6922 27.3227 44.5146 27.5222 44.298 27.6695L34.8143 34.1073C34.5762 34.2689 34.2995 34.3616 34.0137 34.3755C33.7279 34.3895 33.4438 34.3241 33.1916 34.1864C32.9393 34.0487 32.7285 33.8439 32.5814 33.5937C32.4343 33.3434 32.3566 33.0572 32.3564 32.7655Z" fill="#C7C0D0"/>
<path d="M69.6093 23.897C74.6701 26.1462 75.9353 30.0692 74.881 31.9802C73.0066 35.3774 63.1492 41.4691 38.6824 41.4691C9.51236 41.4691 0.0239231 32.683 1.078 28.4657C1.39542 27.1957 2.97579 25.0216 7.75541 23.897" stroke="#C7C0D0" stroke-width="2" stroke-linecap="round"/>
<path d="M68.0016 24.0085C67.7251 23.7407 67.8421 23.2741 68.2122 23.1684L70.5295 22.5072C70.8997 22.4016 71.2453 22.7363 71.1517 23.1096L70.5657 25.4471C70.4721 25.8205 70.0094 25.9525 69.7329 25.6847L68.0016 24.0085Z" fill="#C7C0D0"/>
</svg>
